<mxfile host="app.diagrams.net" agent="Mozilla/5.0 (Windows NT 10.0; Win64; x64) AppleWebKit/537.36 (KHTML, like Gecko) Chrome/141.0.0.0 Safari/537.36" version="28.2.5">
  <diagram name="Page-1" id="AAAf4ZRxA9ESJ6Skwmi4">
    <mxGraphModel dx="1426" dy="751" grid="1" gridSize="10" guides="1" tooltips="1" connect="1" arrows="1" fold="1" page="1" pageScale="1" pageWidth="850" pageHeight="1100" math="0" shadow="0">
      <root>
        <mxCell id="0" />
        <mxCell id="1" parent="0" />
        <mxCell id="ZchNHGmt8V0aS13CJbGR-5" value="" style="rounded=0;whiteSpace=wrap;html=1;" vertex="1" parent="1">
          <mxGeometry x="440" y="40" width="320" height="1000" as="geometry" />
        </mxCell>
        <mxCell id="ZchNHGmt8V0aS13CJbGR-6" value="&lt;b&gt;Система электронных очередей&lt;/b&gt;" style="text;html=1;align=center;verticalAlign=middle;whiteSpace=wrap;rounded=0;" vertex="1" parent="1">
          <mxGeometry x="490" y="40" width="220" height="30" as="geometry" />
        </mxCell>
        <mxCell id="ZchNHGmt8V0aS13CJbGR-8" value="Клиент" style="shape=umlActor;verticalLabelPosition=bottom;verticalAlign=top;html=1;outlineConnect=0;" vertex="1" parent="1">
          <mxGeometry x="310" y="160" width="30" height="60" as="geometry" />
        </mxCell>
        <mxCell id="ZchNHGmt8V0aS13CJbGR-10" value="Получить электронный талон" style="ellipse;whiteSpace=wrap;html=1;" vertex="1" parent="1">
          <mxGeometry x="500" y="80" width="200" height="50" as="geometry" />
        </mxCell>
        <mxCell id="ZchNHGmt8V0aS13CJbGR-11" value="Просмотреть время ожидания" style="ellipse;whiteSpace=wrap;html=1;" vertex="1" parent="1">
          <mxGeometry x="500" y="150" width="200" height="50" as="geometry" />
        </mxCell>
        <mxCell id="ZchNHGmt8V0aS13CJbGR-12" value="Зарегистрироваться в очереди" style="ellipse;whiteSpace=wrap;html=1;" vertex="1" parent="1">
          <mxGeometry x="500" y="220" width="200" height="50" as="geometry" />
        </mxCell>
        <mxCell id="ZchNHGmt8V0aS13CJbGR-13" value="Выбрать услугу" style="ellipse;whiteSpace=wrap;html=1;" vertex="1" parent="1">
          <mxGeometry x="520" y="300" width="160" height="40" as="geometry" />
        </mxCell>
        <mxCell id="ZchNHGmt8V0aS13CJbGR-17" value="Промотреть информацию о клиенте" style="ellipse;whiteSpace=wrap;html=1;" vertex="1" parent="1">
          <mxGeometry x="500" y="350" width="200" height="50" as="geometry" />
        </mxCell>
        <mxCell id="ZchNHGmt8V0aS13CJbGR-18" value="Управлять статусом рабочего места" style="ellipse;whiteSpace=wrap;html=1;" vertex="1" parent="1">
          <mxGeometry x="500" y="420" width="200" height="50" as="geometry" />
        </mxCell>
        <mxCell id="ZchNHGmt8V0aS13CJbGR-19" value="Вызвать следующего клиента" style="ellipse;whiteSpace=wrap;html=1;" vertex="1" parent="1">
          <mxGeometry x="500" y="490" width="200" height="50" as="geometry" />
        </mxCell>
        <mxCell id="ZchNHGmt8V0aS13CJbGR-20" value="Управлять услугами" style="ellipse;whiteSpace=wrap;html=1;" vertex="1" parent="1">
          <mxGeometry x="500" y="560" width="200" height="50" as="geometry" />
        </mxCell>
        <mxCell id="ZchNHGmt8V0aS13CJbGR-21" value="Управлять операторами" style="ellipse;whiteSpace=wrap;html=1;" vertex="1" parent="1">
          <mxGeometry x="500" y="630" width="200" height="50" as="geometry" />
        </mxCell>
        <mxCell id="ZchNHGmt8V0aS13CJbGR-22" value="Управлять окнами" style="ellipse;whiteSpace=wrap;html=1;" vertex="1" parent="1">
          <mxGeometry x="500" y="700" width="200" height="50" as="geometry" />
        </mxCell>
        <mxCell id="ZchNHGmt8V0aS13CJbGR-23" value="Настраивать табло" style="ellipse;whiteSpace=wrap;html=1;" vertex="1" parent="1">
          <mxGeometry x="500" y="770" width="200" height="50" as="geometry" />
        </mxCell>
        <mxCell id="ZchNHGmt8V0aS13CJbGR-24" value="Генерировать отчеты" style="ellipse;whiteSpace=wrap;html=1;" vertex="1" parent="1">
          <mxGeometry x="500" y="840" width="200" height="50" as="geometry" />
        </mxCell>
        <mxCell id="ZchNHGmt8V0aS13CJbGR-25" value="Управлять резервным копированием" style="ellipse;whiteSpace=wrap;html=1;" vertex="1" parent="1">
          <mxGeometry x="500" y="910" width="200" height="50" as="geometry" />
        </mxCell>
        <mxCell id="ZchNHGmt8V0aS13CJbGR-26" value="Мониторинг системы" style="ellipse;whiteSpace=wrap;html=1;" vertex="1" parent="1">
          <mxGeometry x="500" y="980" width="200" height="50" as="geometry" />
        </mxCell>
        <mxCell id="ZchNHGmt8V0aS13CJbGR-27" value="Оператор" style="shape=umlActor;verticalLabelPosition=bottom;verticalAlign=top;html=1;outlineConnect=0;" vertex="1" parent="1">
          <mxGeometry x="310" y="400" width="30" height="60" as="geometry" />
        </mxCell>
        <mxCell id="ZchNHGmt8V0aS13CJbGR-29" value="Администратор" style="shape=umlActor;verticalLabelPosition=bottom;verticalAlign=top;html=1;outlineConnect=0;" vertex="1" parent="1">
          <mxGeometry x="310" y="710" width="30" height="60" as="geometry" />
        </mxCell>
        <mxCell id="ZchNHGmt8V0aS13CJbGR-32" value="Системный администратор" style="shape=umlActor;verticalLabelPosition=bottom;verticalAlign=top;html=1;outlineConnect=0;" vertex="1" parent="1">
          <mxGeometry x="310" y="940" width="30" height="60" as="geometry" />
        </mxCell>
        <mxCell id="ZchNHGmt8V0aS13CJbGR-33" value="" style="endArrow=classic;html=1;rounded=0;entryX=0;entryY=0.5;entryDx=0;entryDy=0;" edge="1" parent="1" source="ZchNHGmt8V0aS13CJbGR-8" target="ZchNHGmt8V0aS13CJbGR-10">
          <mxGeometry width="50" height="50" relative="1" as="geometry">
            <mxPoint x="360" y="160" as="sourcePoint" />
            <mxPoint x="410" y="110" as="targetPoint" />
          </mxGeometry>
        </mxCell>
        <mxCell id="ZchNHGmt8V0aS13CJbGR-34" value="" style="endArrow=classic;html=1;rounded=0;entryX=0;entryY=0.5;entryDx=0;entryDy=0;" edge="1" parent="1" source="ZchNHGmt8V0aS13CJbGR-8" target="ZchNHGmt8V0aS13CJbGR-11">
          <mxGeometry width="50" height="50" relative="1" as="geometry">
            <mxPoint x="390" y="220" as="sourcePoint" />
            <mxPoint x="440" y="170" as="targetPoint" />
          </mxGeometry>
        </mxCell>
        <mxCell id="ZchNHGmt8V0aS13CJbGR-35" value="" style="endArrow=classic;html=1;rounded=0;entryX=0;entryY=0.5;entryDx=0;entryDy=0;" edge="1" parent="1" source="ZchNHGmt8V0aS13CJbGR-8" target="ZchNHGmt8V0aS13CJbGR-12">
          <mxGeometry width="50" height="50" relative="1" as="geometry">
            <mxPoint x="390" y="270" as="sourcePoint" />
            <mxPoint x="440" y="220" as="targetPoint" />
          </mxGeometry>
        </mxCell>
        <mxCell id="ZchNHGmt8V0aS13CJbGR-36" value="" style="endArrow=classic;html=1;rounded=0;entryX=0;entryY=0.5;entryDx=0;entryDy=0;" edge="1" parent="1" source="ZchNHGmt8V0aS13CJbGR-8" target="ZchNHGmt8V0aS13CJbGR-13">
          <mxGeometry width="50" height="50" relative="1" as="geometry">
            <mxPoint x="360" y="340" as="sourcePoint" />
            <mxPoint x="410" y="290" as="targetPoint" />
          </mxGeometry>
        </mxCell>
        <mxCell id="ZchNHGmt8V0aS13CJbGR-37" value="&amp;lt;&amp;lt;include&amp;gt;&amp;gt;" style="html=1;verticalAlign=bottom;labelBackgroundColor=none;endArrow=open;endFill=0;dashed=1;rounded=0;exitX=0;exitY=0;exitDx=0;exitDy=0;entryX=0;entryY=1;entryDx=0;entryDy=0;" edge="1" parent="1" source="ZchNHGmt8V0aS13CJbGR-12" target="ZchNHGmt8V0aS13CJbGR-10">
          <mxGeometry width="160" relative="1" as="geometry">
            <mxPoint x="350" y="260" as="sourcePoint" />
            <mxPoint x="510" y="260" as="targetPoint" />
            <Array as="points">
              <mxPoint x="420" y="170" />
            </Array>
          </mxGeometry>
        </mxCell>
        <mxCell id="ZchNHGmt8V0aS13CJbGR-38" value="&amp;lt;&amp;lt;include&amp;gt;&amp;gt;" style="html=1;verticalAlign=bottom;labelBackgroundColor=none;endArrow=open;endFill=0;dashed=1;rounded=0;exitX=0.5;exitY=1;exitDx=0;exitDy=0;entryX=0.5;entryY=0;entryDx=0;entryDy=0;" edge="1" parent="1" source="ZchNHGmt8V0aS13CJbGR-12" target="ZchNHGmt8V0aS13CJbGR-13">
          <mxGeometry width="160" relative="1" as="geometry">
            <mxPoint x="270" y="320" as="sourcePoint" />
            <mxPoint x="430" y="320" as="targetPoint" />
          </mxGeometry>
        </mxCell>
        <mxCell id="ZchNHGmt8V0aS13CJbGR-39" value="&amp;lt;&amp;lt;include&amp;gt;&amp;gt;" style="html=1;verticalAlign=bottom;labelBackgroundColor=none;endArrow=open;endFill=0;dashed=1;rounded=0;exitX=0;exitY=0.5;exitDx=0;exitDy=0;entryX=0;entryY=0.5;entryDx=0;entryDy=0;" edge="1" parent="1" source="ZchNHGmt8V0aS13CJbGR-19" target="ZchNHGmt8V0aS13CJbGR-17">
          <mxGeometry width="160" relative="1" as="geometry">
            <mxPoint x="370" y="580" as="sourcePoint" />
            <mxPoint x="530" y="580" as="targetPoint" />
            <Array as="points">
              <mxPoint x="400" y="440" />
            </Array>
          </mxGeometry>
        </mxCell>
        <mxCell id="ZchNHGmt8V0aS13CJbGR-40" value="&amp;lt;&amp;lt;include&amp;gt;&amp;gt;" style="html=1;verticalAlign=bottom;labelBackgroundColor=none;endArrow=open;endFill=0;dashed=1;rounded=0;exitX=0;exitY=0.5;exitDx=0;exitDy=0;entryX=0;entryY=1;entryDx=0;entryDy=0;" edge="1" parent="1" source="ZchNHGmt8V0aS13CJbGR-24" target="ZchNHGmt8V0aS13CJbGR-17">
          <mxGeometry width="160" relative="1" as="geometry">
            <mxPoint x="310" y="870" as="sourcePoint" />
            <mxPoint x="470" y="870" as="targetPoint" />
            <Array as="points">
              <mxPoint x="430" y="620" />
            </Array>
          </mxGeometry>
        </mxCell>
        <mxCell id="ZchNHGmt8V0aS13CJbGR-41" value="" style="endArrow=classic;html=1;rounded=0;exitX=1;exitY=0.3333333333333333;exitDx=0;exitDy=0;exitPerimeter=0;entryX=0.05;entryY=0.72;entryDx=0;entryDy=0;entryPerimeter=0;" edge="1" parent="1" source="ZchNHGmt8V0aS13CJbGR-27" target="ZchNHGmt8V0aS13CJbGR-17">
          <mxGeometry width="50" height="50" relative="1" as="geometry">
            <mxPoint x="400" y="580" as="sourcePoint" />
            <mxPoint x="450" y="530" as="targetPoint" />
          </mxGeometry>
        </mxCell>
        <mxCell id="ZchNHGmt8V0aS13CJbGR-42" value="" style="endArrow=classic;html=1;rounded=0;entryX=0;entryY=0.5;entryDx=0;entryDy=0;" edge="1" parent="1" source="ZchNHGmt8V0aS13CJbGR-27" target="ZchNHGmt8V0aS13CJbGR-18">
          <mxGeometry width="50" height="50" relative="1" as="geometry">
            <mxPoint x="260" y="590" as="sourcePoint" />
            <mxPoint x="310" y="540" as="targetPoint" />
          </mxGeometry>
        </mxCell>
        <mxCell id="ZchNHGmt8V0aS13CJbGR-43" value="" style="endArrow=classic;html=1;rounded=0;" edge="1" parent="1" source="ZchNHGmt8V0aS13CJbGR-27">
          <mxGeometry width="50" height="50" relative="1" as="geometry">
            <mxPoint x="370" y="580" as="sourcePoint" />
            <mxPoint x="500" y="520" as="targetPoint" />
          </mxGeometry>
        </mxCell>
        <mxCell id="ZchNHGmt8V0aS13CJbGR-44" value="" style="endArrow=classic;html=1;rounded=0;entryX=0;entryY=0.5;entryDx=0;entryDy=0;" edge="1" parent="1" source="ZchNHGmt8V0aS13CJbGR-29" target="ZchNHGmt8V0aS13CJbGR-24">
          <mxGeometry width="50" height="50" relative="1" as="geometry">
            <mxPoint x="400" y="880" as="sourcePoint" />
            <mxPoint x="450" y="830" as="targetPoint" />
          </mxGeometry>
        </mxCell>
        <mxCell id="ZchNHGmt8V0aS13CJbGR-45" value="" style="endArrow=classic;html=1;rounded=0;entryX=0;entryY=0.5;entryDx=0;entryDy=0;" edge="1" parent="1" source="ZchNHGmt8V0aS13CJbGR-29" target="ZchNHGmt8V0aS13CJbGR-23">
          <mxGeometry width="50" height="50" relative="1" as="geometry">
            <mxPoint x="400" y="880" as="sourcePoint" />
            <mxPoint x="450" y="830" as="targetPoint" />
          </mxGeometry>
        </mxCell>
        <mxCell id="ZchNHGmt8V0aS13CJbGR-46" value="" style="endArrow=classic;html=1;rounded=0;entryX=0;entryY=0.5;entryDx=0;entryDy=0;" edge="1" parent="1" source="ZchNHGmt8V0aS13CJbGR-29" target="ZchNHGmt8V0aS13CJbGR-22">
          <mxGeometry width="50" height="50" relative="1" as="geometry">
            <mxPoint x="400" y="880" as="sourcePoint" />
            <mxPoint x="450" y="830" as="targetPoint" />
          </mxGeometry>
        </mxCell>
        <mxCell id="ZchNHGmt8V0aS13CJbGR-47" value="" style="endArrow=classic;html=1;rounded=0;entryX=0;entryY=0.5;entryDx=0;entryDy=0;exitX=1;exitY=0.3333333333333333;exitDx=0;exitDy=0;exitPerimeter=0;" edge="1" parent="1" source="ZchNHGmt8V0aS13CJbGR-29" target="ZchNHGmt8V0aS13CJbGR-21">
          <mxGeometry width="50" height="50" relative="1" as="geometry">
            <mxPoint x="400" y="880" as="sourcePoint" />
            <mxPoint x="450" y="830" as="targetPoint" />
          </mxGeometry>
        </mxCell>
        <mxCell id="ZchNHGmt8V0aS13CJbGR-48" value="" style="endArrow=classic;html=1;rounded=0;entryX=0;entryY=0.5;entryDx=0;entryDy=0;exitX=0.75;exitY=0.1;exitDx=0;exitDy=0;exitPerimeter=0;" edge="1" parent="1" source="ZchNHGmt8V0aS13CJbGR-29" target="ZchNHGmt8V0aS13CJbGR-20">
          <mxGeometry width="50" height="50" relative="1" as="geometry">
            <mxPoint x="400" y="880" as="sourcePoint" />
            <mxPoint x="450" y="830" as="targetPoint" />
          </mxGeometry>
        </mxCell>
        <mxCell id="ZchNHGmt8V0aS13CJbGR-49" value="" style="endArrow=classic;html=1;rounded=0;entryX=0;entryY=0.5;entryDx=0;entryDy=0;exitX=1;exitY=0.3333333333333333;exitDx=0;exitDy=0;exitPerimeter=0;" edge="1" parent="1" source="ZchNHGmt8V0aS13CJbGR-32" target="ZchNHGmt8V0aS13CJbGR-25">
          <mxGeometry width="50" height="50" relative="1" as="geometry">
            <mxPoint x="400" y="880" as="sourcePoint" />
            <mxPoint x="450" y="830" as="targetPoint" />
          </mxGeometry>
        </mxCell>
        <mxCell id="ZchNHGmt8V0aS13CJbGR-50" value="" style="endArrow=classic;html=1;rounded=0;entryX=0;entryY=0.5;entryDx=0;entryDy=0;" edge="1" parent="1" source="ZchNHGmt8V0aS13CJbGR-32" target="ZchNHGmt8V0aS13CJbGR-26">
          <mxGeometry width="50" height="50" relative="1" as="geometry">
            <mxPoint x="400" y="880" as="sourcePoint" />
            <mxPoint x="450" y="830" as="targetPoint" />
          </mxGeometry>
        </mxCell>
      </root>
    </mxGraphModel>
  </diagram>
</mxfile>
